<svg width="24" height="24" viewBox="0 0 24 24" fill="none" xmlns="http://www.w3.org/2000/svg">
<path d="M23.25 18.75V21.75C23.25 22.5784 22.5784 23.25 21.75 23.25H18.75" stroke="white" stroke-width="1.5" stroke-linecap="round" stroke-linejoin="round"/>
<path d="M18.75 0.75H21.75C22.5784 0.75 23.25 1.42157 23.25 2.25V5.25" stroke="white" stroke-width="1.5" stroke-linecap="round" stroke-linejoin="round"/>
<path d="M0.75 5.25V2.25C0.75 1.42157 1.42157 0.75 2.25 0.75H5.25" stroke="white" stroke-width="1.5" stroke-linecap="round" stroke-linejoin="round"/>
<path d="M5.25 23.25H2.25C1.42157 23.25 0.75 22.5784 0.75 21.75V18.75" stroke="white" stroke-width="1.5" stroke-linecap="round" stroke-linejoin="round"/>
<path d="M5.291 19.5C5.67385 16.0838 8.56248 13.5009 12 13.5009C15.4375 13.5009 18.3262 16.0838 18.709 19.5" stroke="white" stroke-width="1.5" stroke-linecap="round" stroke-linejoin="round"/>
<path d="M7.876 7.98596V8.98596C7.91479 10.1374 7.61622 11.275 7.017 12.259" stroke="white" stroke-width="1.5" stroke-linecap="round" stroke-linejoin="round"/>
<path d="M16.124 7.98596V8.98596C16.0852 10.1374 16.3838 11.275 16.983 12.259" stroke="white" stroke-width="1.5" stroke-linecap="round" stroke-linejoin="round"/>
<path d="M7.888 8.20505C9.46842 8.19384 10.9672 7.50132 12 6.30505C13.0328 7.50132 14.5316 8.19384 16.112 8.20505" stroke="white" stroke-width="1.5" stroke-linecap="round" stroke-linejoin="round"/>
<path fill-rule="evenodd" clip-rule="evenodd" d="M12 12C14.2782 12 16.125 10.1532 16.125 7.875C16.125 5.59683 14.2782 3.75 12 3.75C9.72183 3.75 7.875 5.59683 7.875 7.875C7.875 10.1532 9.72183 12 12 12Z" stroke="white" stroke-width="1.5" stroke-linecap="round" stroke-linejoin="round"/>
</svg>
